<svg width="342" height="150" viewBox="0 0 342 150" fill="none" xmlns="http://www.w3.org/2000/svg">
<rect width="342" height="68" fill="#D93856"/>
<path d="M110.504 40.2075C113.26 40.2075 115.293 38.5059 115.601 36.0488L115.617 35.9658H113.517L113.492 36.0488C113.102 37.5264 112.031 38.3481 110.504 38.3481C108.42 38.3481 107.076 36.6714 107.076 34.0068V33.9985C107.076 31.3423 108.412 29.6738 110.504 29.6738C112.064 29.6738 113.119 30.5288 113.467 31.8984L113.509 32.0562H115.609L115.601 31.9731C115.285 29.5327 113.26 27.8145 110.504 27.8145C107.067 27.8145 104.884 30.1719 104.884 33.9985V34.0068C104.884 37.8335 107.059 40.2075 110.504 40.2075ZM117.037 40H119.104V34.895C119.104 33.5918 119.809 32.853 120.979 32.853C121.328 32.853 121.644 32.9028 121.818 32.9692V31.1016C121.66 31.0601 121.419 31.0186 121.162 31.0186C120.149 31.0186 119.419 31.6577 119.145 32.7202H119.104V31.2012H117.037V40ZM126.417 40.1743C128.716 40.1743 130.011 38.813 130.285 37.46L130.31 37.3687H128.375L128.359 37.4268C128.16 38.0161 127.487 38.564 126.458 38.564C125.113 38.564 124.267 37.6509 124.233 36.1069H130.393V35.4429C130.393 32.7866 128.832 31.0186 126.317 31.0186C123.802 31.0186 122.183 32.8447 122.183 35.6172V35.6255C122.183 38.4229 123.777 40.1743 126.417 40.1743ZM126.342 32.6372C127.438 32.6372 128.234 33.3345 128.384 34.729H124.258C124.424 33.376 125.246 32.6372 126.342 32.6372ZM134.327 40.1494C135.489 40.1494 136.469 39.5684 136.975 38.647H137.025V40H139.092V33.9487C139.092 32.1807 137.672 31.0186 135.473 31.0186C133.24 31.0186 131.887 32.189 131.762 33.7495L131.754 33.8491H133.671L133.688 33.7744C133.821 33.127 134.418 32.6704 135.398 32.6704C136.444 32.6704 137.025 33.21 137.025 34.0981V34.7041L134.726 34.8452C132.592 34.978 131.38 35.916 131.38 37.4766V37.4932C131.38 39.062 132.567 40.1494 134.327 40.1494ZM133.439 37.4102V37.4019C133.439 36.7046 133.995 36.2646 135.016 36.1982L137.025 36.0737V36.7378C137.025 37.7837 136.128 38.5723 134.941 38.5723C134.037 38.5723 133.439 38.1323 133.439 37.4102ZM144.031 40.1743C144.446 40.1743 144.811 40.1328 145.052 40.0996V38.5474C144.911 38.5557 144.753 38.5806 144.554 38.5806C143.798 38.5806 143.417 38.3066 143.417 37.4434V32.7949H145.052V31.2012H143.417V28.9683H141.316V31.2012H140.071V32.7949H141.316V37.6177C141.316 39.4272 142.188 40.1743 144.031 40.1743ZM150.173 40.1743C152.473 40.1743 153.768 38.813 154.042 37.46L154.066 37.3687H152.132L152.116 37.4268C151.917 38.0161 151.244 38.564 150.215 38.564C148.87 38.564 148.023 37.6509 147.99 36.1069H154.149V35.4429C154.149 32.7866 152.589 31.0186 150.074 31.0186C147.559 31.0186 145.94 32.8447 145.94 35.6172V35.6255C145.94 38.4229 147.534 40.1743 150.173 40.1743ZM150.099 32.6372C151.194 32.6372 151.991 33.3345 152.141 34.729H148.015C148.181 33.376 149.003 32.6372 150.099 32.6372ZM158.267 40H160.508L161.521 36.9038H165.978L166.991 40H169.24L164.957 28.022H162.55L158.267 40ZM163.729 30.1553H163.778L165.438 35.252H162.06L163.729 30.1553ZM173.914 40.1743C176.138 40.1743 177.624 38.7798 177.782 36.9453L177.79 36.8872H175.839L175.823 36.9619C175.632 37.8833 174.968 38.5059 173.922 38.5059C172.619 38.5059 171.772 37.4434 171.772 35.6089V35.6006C171.772 33.7993 172.61 32.6953 173.914 32.6953C175.009 32.6953 175.64 33.3843 175.814 34.2393L175.831 34.314H177.782L177.773 34.2476C177.649 32.4878 176.205 31.0186 173.889 31.0186C171.324 31.0186 169.664 32.7783 169.664 35.584V35.5923C169.664 38.4146 171.299 40.1743 173.914 40.1743ZM182.912 40.1743C185.136 40.1743 186.622 38.7798 186.78 36.9453L186.788 36.8872H184.837L184.821 36.9619C184.63 37.8833 183.966 38.5059 182.92 38.5059C181.617 38.5059 180.77 37.4434 180.77 35.6089V35.6006C180.77 33.7993 181.608 32.6953 182.912 32.6953C184.007 32.6953 184.638 33.3843 184.812 34.2393L184.829 34.314H186.78L186.771 34.2476C186.647 32.4878 185.203 31.0186 182.887 31.0186C180.322 31.0186 178.662 32.7783 178.662 35.584V35.5923C178.662 38.4146 180.297 40.1743 182.912 40.1743ZM191.918 40.1743C194.5 40.1743 196.176 38.4561 196.176 35.6006V35.584C196.176 32.7451 194.475 31.0186 191.91 31.0186C189.353 31.0186 187.66 32.7617 187.66 35.584V35.6006C187.66 38.4478 189.328 40.1743 191.918 40.1743ZM191.926 38.5059C190.606 38.5059 189.768 37.4517 189.768 35.6006V35.584C189.768 33.7578 190.623 32.6953 191.91 32.6953C193.221 32.6953 194.068 33.7495 194.068 35.584V35.6006C194.068 37.4434 193.229 38.5059 191.926 38.5059ZM200.501 40.1743C201.829 40.1743 202.734 39.5601 203.19 38.6221H203.232V40H205.299V31.2012H203.232V36.2979C203.232 37.5762 202.477 38.4312 201.29 38.4312C200.111 38.4312 199.53 37.7256 199.53 36.4805V31.2012H197.463V36.8872C197.463 38.9292 198.567 40.1743 200.501 40.1743ZM207 40H209.067V34.895C209.067 33.625 209.823 32.7617 211.01 32.7617C212.188 32.7617 212.77 33.4673 212.77 34.7207V40H214.836V34.3057C214.836 32.2637 213.732 31.0186 211.798 31.0186C210.462 31.0186 209.565 31.6328 209.109 32.5791H209.067V31.2012H207V40ZM219.767 40.1743C220.182 40.1743 220.547 40.1328 220.788 40.0996V38.5474C220.647 38.5557 220.489 38.5806 220.29 38.5806C219.535 38.5806 219.153 38.3066 219.153 37.4434V32.7949H220.788V31.2012H219.153V28.9683H217.053V31.2012H215.808V32.7949H217.053V37.6177C217.053 39.4272 217.924 40.1743 219.767 40.1743ZM236.759 34.0068C236.759 33.6499 236.634 33.3594 236.344 33.0854L229.977 26.8599C229.761 26.6357 229.496 26.5278 229.172 26.5278C228.533 26.5278 228.01 27.0425 228.01 27.6816C228.01 27.9971 228.143 28.2876 228.375 28.52L234.02 33.9985L228.375 39.4937C228.143 39.7178 228.01 40.0083 228.01 40.332C228.01 40.9712 228.533 41.4858 229.172 41.4858C229.487 41.4858 229.761 41.3779 229.977 41.1538L236.344 34.9282C236.634 34.6543 236.759 34.3555 236.759 34.0068Z" fill="white"/>
<rect width="342" height="68" transform="translate(0 82)" fill="white" fill-opacity="0.14"/>
<path d="M90.3541 114.531H89.75V114.5H83V117.5H87.2386C86.6203 119.246 84.9586 120.5 83 120.5C80.5149 120.5 78.5 118.485 78.5 116C78.5 113.515 80.5149 111.5 83 111.5C84.1471 111.5 85.1908 111.933 85.9854 112.64L88.1068 110.518C86.7673 109.27 84.9755 108.5 83 108.5C78.8581 108.5 75.5 111.858 75.5 116C75.5 120.142 78.8581 123.5 83 123.5C87.1419 123.5 90.5 120.142 90.5 116C90.5 115.497 90.4482 115.006 90.3541 114.531Z" fill="#FFC107"/>
<path d="M76.3647 112.509L78.8289 114.316C79.4956 112.666 81.1104 111.5 83 111.5C84.1471 111.5 85.1907 111.933 85.9854 112.64L88.1067 110.518C86.7672 109.27 84.9755 108.5 83 108.5C80.1192 108.5 77.621 110.126 76.3647 112.509Z" fill="#FF3D00"/>
<path d="M83 123.5C84.9372 123.5 86.6975 122.759 88.0284 121.553L85.7071 119.589C84.9541 120.159 84.0181 120.5 83 120.5C81.0492 120.5 79.3929 119.256 78.7689 117.52L76.3231 119.405C77.5644 121.834 80.0851 123.5 83 123.5Z" fill="#4CAF50"/>
<path d="M90.3541 114.531H89.75V114.5H83V117.5H87.2386C86.9416 118.339 86.402 119.062 85.706 119.589C85.7064 119.589 85.7067 119.589 85.7071 119.588L88.0284 121.553C87.8641 121.702 90.5 119.75 90.5 116C90.5 115.497 90.4482 115.006 90.3541 114.531Z" fill="#1976D2"/>
<path d="M122.267 122.208C125.023 122.208 127.057 120.506 127.364 118.049L127.38 117.966H125.28L125.255 118.049C124.865 119.526 123.794 120.348 122.267 120.348C120.184 120.348 118.839 118.671 118.839 116.007V115.999C118.839 113.342 120.175 111.674 122.267 111.674C123.828 111.674 124.882 112.529 125.23 113.898L125.272 114.056H127.372L127.364 113.973C127.048 111.533 125.023 109.814 122.267 109.814C118.831 109.814 116.647 112.172 116.647 115.999V116.007C116.647 119.833 118.822 122.208 122.267 122.208ZM128.8 122H130.867V116.895C130.867 115.592 131.572 114.853 132.743 114.853C133.091 114.853 133.407 114.903 133.581 114.969V113.102C133.423 113.06 133.183 113.019 132.925 113.019C131.913 113.019 131.182 113.658 130.908 114.72H130.867V113.201H128.8V122ZM138.18 122.174C140.479 122.174 141.774 120.813 142.048 119.46L142.073 119.369H140.139L140.122 119.427C139.923 120.016 139.25 120.564 138.221 120.564C136.876 120.564 136.03 119.651 135.997 118.107H142.156V117.443C142.156 114.787 140.595 113.019 138.08 113.019C135.565 113.019 133.946 114.845 133.946 117.617V117.625C133.946 120.423 135.54 122.174 138.18 122.174ZM138.105 114.637C139.201 114.637 139.998 115.334 140.147 116.729H136.021C136.188 115.376 137.009 114.637 138.105 114.637ZM146.09 122.149C147.252 122.149 148.232 121.568 148.738 120.647H148.788V122H150.855V115.949C150.855 114.181 149.436 113.019 147.236 113.019C145.003 113.019 143.65 114.189 143.525 115.75L143.517 115.849H145.435L145.451 115.774C145.584 115.127 146.182 114.67 147.161 114.67C148.207 114.67 148.788 115.21 148.788 116.098V116.704L146.489 116.845C144.355 116.978 143.144 117.916 143.144 119.477V119.493C143.144 121.062 144.331 122.149 146.09 122.149ZM145.202 119.41V119.402C145.202 118.705 145.758 118.265 146.779 118.198L148.788 118.074V118.738C148.788 119.784 147.892 120.572 146.705 120.572C145.8 120.572 145.202 120.132 145.202 119.41ZM155.794 122.174C156.209 122.174 156.574 122.133 156.815 122.1V120.547C156.674 120.556 156.516 120.581 156.317 120.581C155.562 120.581 155.18 120.307 155.18 119.443V114.795H156.815V113.201H155.18V110.968H153.08V113.201H151.834V114.795H153.08V119.618C153.08 121.427 153.951 122.174 155.794 122.174ZM161.937 122.174C164.236 122.174 165.531 120.813 165.805 119.46L165.83 119.369H163.896L163.879 119.427C163.68 120.016 163.007 120.564 161.978 120.564C160.633 120.564 159.787 119.651 159.753 118.107H165.913V117.443C165.913 114.787 164.352 113.019 161.837 113.019C159.322 113.019 157.703 114.845 157.703 117.617V117.625C157.703 120.423 159.297 122.174 161.937 122.174ZM161.862 114.637C162.958 114.637 163.754 115.334 163.904 116.729H159.778C159.944 115.376 160.766 114.637 161.862 114.637ZM172.371 122H174.529L176.255 115.567H176.297L178.032 122H180.207L182.589 113.201H180.547L179.061 119.958H179.011L177.293 113.201H175.309L173.591 119.958H173.549L172.063 113.201H169.988L172.371 122ZM184.714 111.939C185.361 111.939 185.859 111.425 185.859 110.811C185.859 110.18 185.361 109.673 184.714 109.673C184.066 109.673 183.56 110.18 183.56 110.811C183.56 111.425 184.066 111.939 184.714 111.939ZM183.676 122H185.743V113.201H183.676V122ZM190.773 122.174C191.188 122.174 191.554 122.133 191.794 122.1V120.547C191.653 120.556 191.496 120.581 191.296 120.581C190.541 120.581 190.159 120.307 190.159 119.443V114.795H191.794V113.201H190.159V110.968H188.059V113.201H186.814V114.795H188.059V119.618C188.059 121.427 188.931 122.174 190.773 122.174ZM193.272 122H195.339V116.928C195.339 115.65 196.103 114.762 197.273 114.762C198.46 114.762 199.141 115.575 199.141 116.928V122H201.208V116.521C201.208 114.396 199.996 113.019 198.103 113.019C196.783 113.019 195.845 113.625 195.389 114.679H195.339V110.022H193.272V122ZM211.75 122.208C215.028 122.208 216.971 120.257 216.971 117.003V115.708H211.907V117.376H214.879L214.871 117.559C214.829 119.236 213.584 120.348 211.774 120.348C209.616 120.348 208.263 118.696 208.263 115.949V115.94C208.263 113.251 209.558 111.674 211.716 111.674C213.186 111.674 214.223 112.421 214.68 113.708L214.705 113.799H216.879L216.846 113.666C216.39 111.458 214.547 109.814 211.708 109.814C208.255 109.814 206.08 112.155 206.08 115.957V115.965C206.08 119.833 208.255 122.208 211.75 122.208ZM222.408 122.174C224.989 122.174 226.666 120.456 226.666 117.601V117.584C226.666 114.745 224.964 113.019 222.399 113.019C219.843 113.019 218.149 114.762 218.149 117.584V117.601C218.149 120.448 219.818 122.174 222.408 122.174ZM222.416 120.506C221.096 120.506 220.258 119.452 220.258 117.601V117.584C220.258 115.758 221.113 114.695 222.399 114.695C223.711 114.695 224.558 115.75 224.558 117.584V117.601C224.558 119.443 223.719 120.506 222.416 120.506ZM231.887 122.174C234.469 122.174 236.146 120.456 236.146 117.601V117.584C236.146 114.745 234.444 113.019 231.879 113.019C229.322 113.019 227.629 114.762 227.629 117.584V117.601C227.629 120.448 229.297 122.174 231.887 122.174ZM231.896 120.506C230.576 120.506 229.737 119.452 229.737 117.601V117.584C229.737 115.758 230.592 114.695 231.879 114.695C233.19 114.695 234.037 115.75 234.037 117.584V117.601C234.037 119.443 233.199 120.506 231.896 120.506ZM241.441 125.08C243.99 125.08 245.592 123.743 245.592 121.751V113.201H243.525V114.695H243.475C242.977 113.683 242.014 113.019 240.769 113.019C238.544 113.019 237.108 114.729 237.108 117.509V117.518C237.108 120.257 238.528 121.95 240.736 121.95C241.998 121.95 242.994 121.353 243.483 120.415H243.525V121.685C243.525 122.805 242.786 123.519 241.441 123.519C240.362 123.519 239.657 123.137 239.433 122.631L239.408 122.564H237.374L237.391 122.639C237.64 124.017 239.109 125.08 241.441 125.08ZM241.383 120.356C240.055 120.356 239.217 119.286 239.217 117.551V117.542C239.217 115.833 240.055 114.762 241.383 114.762C242.662 114.762 243.533 115.849 243.533 117.551V117.559C243.533 119.269 242.67 120.356 241.383 120.356ZM247.343 122H249.41V110.022H247.343V122ZM255.038 122.174C257.337 122.174 258.632 120.813 258.906 119.46L258.931 119.369H256.997L256.98 119.427C256.781 120.016 256.109 120.564 255.08 120.564C253.735 120.564 252.888 119.651 252.855 118.107H259.014V117.443C259.014 114.787 257.454 113.019 254.938 113.019C252.423 113.019 250.805 114.845 250.805 117.617V117.625C250.805 120.423 252.398 122.174 255.038 122.174ZM254.963 114.637C256.059 114.637 256.856 115.334 257.005 116.729H252.88C253.046 115.376 253.868 114.637 254.963 114.637Z" fill="white"/>
</svg>
