<svg width="342" height="150" viewBox="0 0 342 150" fill="none" xmlns="http://www.w3.org/2000/svg">
<rect width="342" height="68" fill="#D93856"/>
<path d="M139.457 40H147.036V38.1987H141.599V28.022H139.457V40ZM152.091 40.1743C154.672 40.1743 156.349 38.4561 156.349 35.6006V35.584C156.349 32.7451 154.647 31.0186 152.083 31.0186C149.526 31.0186 147.833 32.7617 147.833 35.584V35.6006C147.833 38.4478 149.501 40.1743 152.091 40.1743ZM152.099 38.5059C150.779 38.5059 149.941 37.4517 149.941 35.6006V35.584C149.941 33.7578 150.796 32.6953 152.083 32.6953C153.394 32.6953 154.241 33.7495 154.241 35.584V35.6006C154.241 37.4434 153.402 38.5059 152.099 38.5059ZM161.645 43.0796C164.193 43.0796 165.795 41.7432 165.795 39.751V31.2012H163.729V32.6953H163.679C163.181 31.6826 162.218 31.0186 160.973 31.0186C158.748 31.0186 157.312 32.7285 157.312 35.5093V35.5176C157.312 38.2568 158.731 39.9502 160.939 39.9502C162.201 39.9502 163.197 39.3525 163.687 38.4146H163.729V39.6846C163.729 40.8052 162.99 41.519 161.645 41.519C160.566 41.519 159.86 41.1372 159.636 40.6309L159.611 40.5645H157.578L157.594 40.6392C157.843 42.0171 159.312 43.0796 161.645 43.0796ZM161.587 38.3564C160.259 38.3564 159.42 37.2856 159.42 35.5508V35.5425C159.42 33.8325 160.259 32.7617 161.587 32.7617C162.865 32.7617 163.737 33.8491 163.737 35.5508V35.5591C163.737 37.269 162.874 38.3564 161.587 38.3564ZM171.1 40H173.241V28.022H171.1V40ZM175.142 40H177.209V34.895C177.209 33.625 177.964 32.7617 179.151 32.7617C180.33 32.7617 180.911 33.4673 180.911 34.7207V40H182.978V34.3057C182.978 32.2637 181.874 31.0186 179.94 31.0186C178.604 31.0186 177.707 31.6328 177.25 32.5791H177.209V31.2012H175.142V40ZM202.593 34.0068C202.593 33.6499 202.468 33.3594 202.178 33.0854L195.811 26.8599C195.595 26.6357 195.33 26.5278 195.006 26.5278C194.367 26.5278 193.844 27.0425 193.844 27.6816C193.844 27.9971 193.977 28.2876 194.209 28.52L199.854 33.9985L194.209 39.4937C193.977 39.7178 193.844 40.0083 193.844 40.332C193.844 40.9712 194.367 41.4858 195.006 41.4858C195.321 41.4858 195.595 41.3779 195.811 41.1538L202.178 34.9282C202.468 34.6543 202.593 34.3555 202.593 34.0068Z" fill="white"/>
<rect width="342" height="68" transform="translate(0 82)" fill="white" fill-opacity="0.14"/>
<path d="M90.3541 114.531H89.75V114.5H83V117.5H87.2386C86.6203 119.246 84.9586 120.5 83 120.5C80.5149 120.5 78.5 118.485 78.5 116C78.5 113.515 80.5149 111.5 83 111.5C84.1471 111.5 85.1908 111.933 85.9854 112.64L88.1068 110.518C86.7673 109.27 84.9755 108.5 83 108.5C78.8581 108.5 75.5 111.858 75.5 116C75.5 120.142 78.8581 123.5 83 123.5C87.1419 123.5 90.5 120.142 90.5 116C90.5 115.497 90.4482 115.006 90.3541 114.531Z" fill="#FFC107"/>
<path d="M76.3647 112.509L78.8289 114.316C79.4956 112.666 81.1104 111.5 83 111.5C84.1471 111.5 85.1907 111.933 85.9854 112.64L88.1067 110.518C86.7672 109.27 84.9755 108.5 83 108.5C80.1192 108.5 77.621 110.126 76.3647 112.509Z" fill="#FF3D00"/>
<path d="M83 123.5C84.9372 123.5 86.6975 122.759 88.0284 121.553L85.7071 119.589C84.9541 120.159 84.0181 120.5 83 120.5C81.0492 120.5 79.3929 119.256 78.7689 117.52L76.3231 119.405C77.5644 121.834 80.0851 123.5 83 123.5Z" fill="#4CAF50"/>
<path d="M90.3541 114.531H89.75V114.5H83V117.5H87.2386C86.9416 118.339 86.402 119.062 85.706 119.589C85.7064 119.589 85.7067 119.589 85.7071 119.588L88.0284 121.553C87.8641 121.702 90.5 119.75 90.5 116C90.5 115.497 90.4482 115.006 90.3541 114.531Z" fill="#1976D2"/>
<path d="M117.054 122H124.633V120.199H119.196V110.022H117.054V122ZM129.688 122.174C132.27 122.174 133.946 120.456 133.946 117.601V117.584C133.946 114.745 132.245 113.019 129.68 113.019C127.123 113.019 125.43 114.762 125.43 117.584V117.601C125.43 120.448 127.098 122.174 129.688 122.174ZM129.696 120.506C128.376 120.506 127.538 119.452 127.538 117.601V117.584C127.538 115.758 128.393 114.695 129.68 114.695C130.991 114.695 131.838 115.75 131.838 117.584V117.601C131.838 119.443 131 120.506 129.696 120.506ZM139.242 125.08C141.791 125.08 143.393 123.743 143.393 121.751V113.201H141.326V114.695H141.276C140.778 113.683 139.815 113.019 138.57 113.019C136.345 113.019 134.909 114.729 134.909 117.509V117.518C134.909 120.257 136.329 121.95 138.537 121.95C139.798 121.95 140.794 121.353 141.284 120.415H141.326V121.685C141.326 122.805 140.587 123.519 139.242 123.519C138.163 123.519 137.458 123.137 137.233 122.631L137.208 122.564H135.175L135.191 122.639C135.44 124.017 136.91 125.08 139.242 125.08ZM139.184 120.356C137.856 120.356 137.018 119.286 137.018 117.551V117.542C137.018 115.833 137.856 114.762 139.184 114.762C140.462 114.762 141.334 115.849 141.334 117.551V117.559C141.334 119.269 140.471 120.356 139.184 120.356ZM148.697 122H150.838V110.022H148.697V122ZM152.739 122H154.806V116.895C154.806 115.625 155.562 114.762 156.749 114.762C157.927 114.762 158.508 115.467 158.508 116.721V122H160.575V116.306C160.575 114.264 159.471 113.019 157.537 113.019C156.201 113.019 155.304 113.633 154.848 114.579H154.806V113.201H152.739V122ZM167.357 122H169.515L171.242 115.567H171.283L173.018 122H175.193L177.575 113.201H175.533L174.047 119.958H173.998L172.279 113.201H170.295L168.577 119.958H168.536L167.05 113.201H164.975L167.357 122ZM179.7 111.939C180.348 111.939 180.846 111.425 180.846 110.811C180.846 110.18 180.348 109.673 179.7 109.673C179.053 109.673 178.546 110.18 178.546 110.811C178.546 111.425 179.053 111.939 179.7 111.939ZM178.663 122H180.729V113.201H178.663V122ZM185.76 122.174C186.175 122.174 186.54 122.133 186.781 122.1V120.547C186.64 120.556 186.482 120.581 186.283 120.581C185.527 120.581 185.146 120.307 185.146 119.443V114.795H186.781V113.201H185.146V110.968H183.045V113.201H181.8V114.795H183.045V119.618C183.045 121.427 183.917 122.174 185.76 122.174ZM188.258 122H190.325V116.928C190.325 115.65 191.089 114.762 192.259 114.762C193.446 114.762 194.127 115.575 194.127 116.928V122H196.194V116.521C196.194 114.396 194.982 113.019 193.089 113.019C191.77 113.019 190.832 113.625 190.375 114.679H190.325V110.022H188.258V122ZM206.736 122.208C210.015 122.208 211.957 120.257 211.957 117.003V115.708H206.894V117.376H209.865L209.857 117.559C209.815 119.236 208.57 120.348 206.761 120.348C204.603 120.348 203.25 118.696 203.25 115.949V115.94C203.25 113.251 204.544 111.674 206.703 111.674C208.172 111.674 209.209 112.421 209.666 113.708L209.691 113.799H211.866L211.833 113.666C211.376 111.458 209.533 109.814 206.694 109.814C203.241 109.814 201.066 112.155 201.066 115.957V115.965C201.066 119.833 203.241 122.208 206.736 122.208ZM217.394 122.174C219.976 122.174 221.652 120.456 221.652 117.601V117.584C221.652 114.745 219.951 113.019 217.386 113.019C214.829 113.019 213.136 114.762 213.136 117.584V117.601C213.136 120.448 214.804 122.174 217.394 122.174ZM217.402 120.506C216.083 120.506 215.244 119.452 215.244 117.601V117.584C215.244 115.758 216.099 114.695 217.386 114.695C218.697 114.695 219.544 115.75 219.544 117.584V117.601C219.544 119.443 218.706 120.506 217.402 120.506ZM226.874 122.174C229.455 122.174 231.132 120.456 231.132 117.601V117.584C231.132 114.745 229.43 113.019 226.865 113.019C224.309 113.019 222.615 114.762 222.615 117.584V117.601C222.615 120.448 224.284 122.174 226.874 122.174ZM226.882 120.506C225.562 120.506 224.724 119.452 224.724 117.601V117.584C224.724 115.758 225.579 114.695 226.865 114.695C228.177 114.695 229.023 115.75 229.023 117.584V117.601C229.023 119.443 228.185 120.506 226.882 120.506ZM236.428 125.08C238.976 125.08 240.578 123.743 240.578 121.751V113.201H238.511V114.695H238.461C237.963 113.683 237 113.019 235.755 113.019C233.531 113.019 232.095 114.729 232.095 117.509V117.518C232.095 120.257 233.514 121.95 235.722 121.95C236.984 121.95 237.98 121.353 238.47 120.415H238.511V121.685C238.511 122.805 237.772 123.519 236.428 123.519C235.349 123.519 234.643 123.137 234.419 122.631L234.394 122.564H232.36L232.377 122.639C232.626 124.017 234.095 125.08 236.428 125.08ZM236.37 120.356C235.042 120.356 234.203 119.286 234.203 117.551V117.542C234.203 115.833 235.042 114.762 236.37 114.762C237.648 114.762 238.52 115.849 238.52 117.551V117.559C238.52 119.269 237.656 120.356 236.37 120.356ZM242.33 122H244.396V110.022H242.33V122ZM250.024 122.174C252.324 122.174 253.619 120.813 253.893 119.46L253.917 119.369H251.983L251.967 119.427C251.768 120.016 251.095 120.564 250.066 120.564C248.721 120.564 247.875 119.651 247.841 118.107H254V117.443C254 114.787 252.44 113.019 249.925 113.019C247.41 113.019 245.791 114.845 245.791 117.617V117.625C245.791 120.423 247.385 122.174 250.024 122.174ZM249.95 114.637C251.045 114.637 251.842 115.334 251.992 116.729H247.866C248.032 115.376 248.854 114.637 249.95 114.637Z" fill="white"/>
</svg>
